<svg viewBox="0 0 788 576" xmlns="http://www.w3.org/2000/svg">
	<rect x="0" y="0" width="788" height="576" fill="#ccc"/>
	<g transform="matrix(1,0,0,1,393.95,288)">
		<!-- blue bg-->
		<path d="M384.05 288L-383.95 288L-383.95 -288L384.05 -288L384.05 288" fill="#10106e"/>
		<!-- bbc 1 legend -->
		<path d="M50 127.85Q61.45 128.7 70.35 135.7L72.75 137.6L73.05 138.05Q73.5 138.75 73.55 139.65Q73.5 141.25 72.6 142.15Q71.65 143.05 70.4 143.1Q69.4 143.05 68.7 142.6L68.2 142.15L68.15 142.15L67.9 141.9Q58.95 134.05 46.85 134.05Q33.5 134.05 24.1 143.45Q14.65 152.9 14.65 166.2Q14.65 179.5 24.1 188.95Q33.5 198.4 46.85 198.4Q59.15 198.4 68.15 190.3L69.25 189.3L69.3 189.3L69.5 189.2L70.8 188.9Q72.15 188.9 73.1 189.85L73.05 189.85Q73.95 190.7 73.95 191.95Q73.95 193.2 73.5 193.95L72.2 195.15Q61.45 204.7 46.75 204.7Q30.75 204.7 19.45 193.4Q9.7 183.7 8.35 170.55L8.1 166.2Q8.1 164 8.35 161.9Q9.7 148.7 19.45 139Q29.65 128.8 43.7 127.85L50 127.85M65.45 145.45L66.15 146.05L66.1 146.05L66.45 146.4L66.6 147L66.7 148.2Q66.65 149.45 65.75 150.35Q64.85 151.25 63.55 151.3L62.05 150.9L62 150.9L61.5 150.55L60.85 149.8L60.1 149.15Q54.4 144.65 46.85 144.65Q37.85 144.65 31.55 150.95Q25.25 157.25 25.25 166.2Q25.25 175.15 31.55 181.45Q37.85 187.8 46.85 187.8Q55.35 187.8 61.5 182.05L61.55 182.05L62.45 181L62.45 180.95L62.95 180.55L63 180.5L63.35 180.3L63.3 180.35L64.65 180.05Q65.9 180.05 66.85 181Q67.75 181.9 67.8 183.15Q67.75 184.45 67.25 185.25L66.55 185.95L66.5 186Q58.35 194.1 46.85 194.1Q35.3 194.1 27.15 185.95Q18.95 177.75 18.95 166.2Q18.95 154.65 27.15 146.5Q35.3 138.35 46.85 138.35Q57.35 138.3 65.1 145.15L65.45 145.45M100.5 127.75L100.65 127.75Q101.9 127.75 102.8 128.7Q103.65 129.55 103.7 130.8L103.7 131L103.7 201.45L103.7 201.6Q103.65 202.85 102.8 203.75Q101.9 204.65 100.65 204.7L100.5 204.7Q99.25 204.65 98.35 203.75Q97.45 202.85 97.4 201.6L97.4 145.1L97.3 144.85L97.05 144.75L96.8 144.85Q96.65 144.95 96.65 145.1Q96.6 146.35 95.7 147.25Q94.75 148.15 93.45 148.2Q92.15 148.15 91.25 147.25Q90.3 146.3 90.3 145.05Q90.3 144.5 90.45 144.05Q90.7 143.35 91.25 142.75L91.3 142.75L91.65 142.45L91.7 142.4Q92.3 142.1 92.75 141.6L92.75 141.55L93.4 140.65L93.4 140.7L93.5 140.55L93.5 140.5L94.3 139.4L95.25 137.7Q96.8 134.55 97.4 130.85L97.4 130.8Q97.45 129.55 98.35 128.7Q99.25 127.75 100.5 127.75M113.5 128.7Q114.35 129.55 114.4 130.8L114.4 131L114.4 201.45L114.4 201.6Q114.35 202.85 113.5 203.75Q112.6 204.65 111.35 204.7L111.15 204.7Q109.9 204.65 109.05 203.75Q108.15 202.85 108.1 201.6L108.1 130.8Q108.15 129.55 109.05 128.7Q109.9 127.75 111.15 127.75L111.35 127.75Q112.6 127.75 113.5 128.7M-108.1 131.25L-108.1 131.4L-108.1 201.9L-108.1 202.1Q-108.15 203.3 -109.05 204.2Q-109.95 205.1 -111.15 205.15L-111.3 205.15Q-112.6 205.1 -113.45 204.2L-113.5 204.2Q-114.4 203.3 -114.4 202.1L-114.4 131.25Q-114.4 130 -113.45 129.1L-112.8 128.55Q-112.15 128.2 -111.35 128.2L-111.15 128.2Q-110.4 128.2 -109.7 128.55L-109.05 129.1Q-108.15 130 -108.1 131.25M-102.2 128.55Q-101.55 128.2 -100.75 128.2L-100.6 128.2L-99.1 128.55L-98.45 129.1Q-97.55 130 -97.5 131.25L-97.5 131.4L-97.5 201.9L-97.5 202.1Q-97.55 203.3 -98.45 204.2Q-99.35 205.1 -100.6 205.15L-100.75 205.15Q-102 205.1 -102.9 204.2Q-103.8 203.3 -103.8 202.1L-103.8 131.25Q-103.8 130 -102.9 129.1L-102.2 128.55M-90.8 130.15L-90.15 130.25Q-84.9 130.75 -80.95 134.7Q-76.1 139.55 -76.05 146.4Q-76.1 153.25 -80.95 158.15Q-83.9 161.05 -87.5 162.2L-87.45 162.2L-90.75 162.85L-91.05 162.85L-91.15 162.9Q-92.35 162.85 -93.15 162L-93.2 161.95L-93.45 161.65L-93.45 161.7Q-94.1 160.9 -94.1 159.85Q-94.1 158.8 -93.5 158.05L-92.8 157.5Q-92.4 157.25 -92 157.15L-91.9 157.15L-90.2 156.9Q-87.4 156.25 -85.2 154.1Q-82.1 151 -82.1 146.6Q-82.1 142.25 -85.2 139.15Q-87.55 136.75 -90.65 136.2L-90.7 136.2L-91.9 136L-92.95 135.3Q-93.85 134.4 -93.85 133.15Q-93.85 131.9 -92.95 131.05Q-92.35 130.4 -91.6 130.25L-90.85 130.15L-90.8 130.15M-91.7 165.8L-90.4 165.9L-89.95 165.95Q-83.75 166.7 -79.1 171.35Q-73.5 176.95 -73.5 184.85Q-73.5 192.75 -79.1 198.3Q-82.85 202.05 -87.65 203.3L-91.7 203.9L-91.85 203.9L-93.4 203.4L-93.45 203.35L-94 202.9Q-94.75 202.15 -94.9 201.25L-94.95 200.65Q-94.95 199.35 -94 198.45L-94.05 198.45Q-93.7 198.1 -92.95 197.9L-92.4 197.75L-89.5 197.7L-89.45 197.65L-88.85 197.5L-88.25 197.3Q-85.45 196.35 -83.2 194.1Q-79.35 190.25 -79.35 184.8Q-79.35 179.3 -83.2 175.45Q-86.15 172.55 -89.95 171.85L-92.55 171.6L-92.8 171.6L-93.45 171.05Q-94.4 170.15 -94.4 168.85L-94.1 167.55L-93.9 167.15L-93.9 167.2L-93.6 166.8L-93.45 166.65L-93.4 166.65Q-92.8 166 -91.95 165.8L-91.7 165.8M-27.75 130.25L-27.05 130.15L-26.95 130.15L-26.35 130.25L-26.3 130.25Q-21.1 130.75 -17.15 134.7Q-12.3 139.55 -12.25 146.4Q-12.3 153.25 -17.15 158.15Q-20.05 161.05 -23.65 162.2L-26.95 162.85L-27.2 162.85L-27.25 162.9Q-28.5 162.85 -29.4 161.95L-29.4 162L-29.65 161.7Q-30.3 160.9 -30.25 159.85Q-30.3 158.8 -29.7 158.05L-29 157.5Q-28.6 157.25 -28.2 157.15L-28.1 157.15L-28.05 157.15L-26.4 156.9Q-23.6 156.25 -21.35 154.1Q-18.3 151 -18.3 146.6Q-18.3 142.25 -21.35 139.15Q-23.75 136.75 -26.85 136.2L-26.9 136.2L-28.1 136L-29.15 135.3Q-30.05 134.4 -30.05 133.15Q-30.05 131.9 -29.15 131.05Q-28.55 130.45 -27.75 130.25M-34.6 129.1Q-33.75 130 -33.7 131.25L-33.7 131.4L-33.7 201.9L-33.7 202.1Q-33.75 203.3 -34.6 204.2Q-35.5 205.1 -36.75 205.15L-36.9 205.15Q-38.15 205.1 -39.05 204.2Q-39.95 203.3 -40 202.1L-40 131.25Q-39.95 130 -39.05 129.1L-38.4 128.55Q-37.75 128.2 -36.9 128.2L-36.75 128.2Q-35.95 128.2 -35.3 128.55L-34.6 129.1M-6.15 130.5L-5.15 131.25L-4.35 132.4L-4.3 132.4L-3.7 133.55L-3.65 133.7L-3.05 135Q-0.85 140.1 -0.85 146.15Q-0.85 155.75 -6.45 163.05L-7.15 163.9L-7.2 164.2L-7.1 164.45L-6.95 164.55L-6.65 164.9Q1.55 173.05 1.55 184.6Q1.55 195.3 -5.45 203.15L-6.1 203.95L-6.6 204.5L-7.3 205Q-7.8 205.3 -8.35 205.4L-8.4 205.4L-8.8 205.45Q-10.2 205.4 -11.1 204.5Q-12.05 203.55 -12.05 202.3Q-12.05 201.4 -11.65 200.7L-11.65 200.75L-11.1 200.05L-10.1 199L-10.1 199.05Q-4.4 193.25 -4.4 184.6Q-4.4 175.65 -10.7 169.35L-11.35 168.75Q-12.75 167.45 -14.25 166.45Q-14.95 165.85 -15.75 165.65L-15.8 165.65L-16.1 165.6L-16.7 165.2L-16.75 165.2L-16.9 165.05L-17.05 164.65L-17.05 164.6L-17.15 164.25L-17 163.7L-16.95 163.65L-16.7 163.25L-15.85 162.75L-15.9 162.75L-14.75 161.85L-14 161.2L-14.05 161.2L-13.55 160.7L-13.5 160.7L-12.65 159.9L-12.15 159.4L-12.1 159.35L-12.05 159.25Q-7.3 153.35 -7.3 145.5Q-7.3 141.25 -8.65 137.6L-9.05 136.7L-9.55 135.75L-10.2 134.7L-10.4 134.05L-10.5 133.4Q-10.5 132.1 -9.55 131.15Q-8.65 130.25 -7.35 130.25L-6.45 130.35L-6.1 130.5L-6.15 130.5M-70.3 130.35L-69.95 130.5L-69 131.25L-68.1 132.4L-67.55 133.5L-67.5 133.65L-67.5 133.7L-66.9 135Q-64.7 140.1 -64.7 146.15Q-64.7 155.75 -70.25 163.05L-70.95 163.95L-71 164.2L-70.9 164.45L-70.75 164.55L-70.45 164.9Q-62.3 173.05 -62.25 184.6Q-62.25 195.3 -69.3 203.15L-69.95 203.95L-70.45 204.5L-70.5 204.5L-71.15 205L-72.15 205.4L-72.2 205.4L-72.6 205.45Q-74.05 205.4 -74.9 204.5Q-75.85 203.55 -75.85 202.3Q-75.9 201.4 -75.45 200.7L-75.45 200.75L-74.95 200.05L-73.9 199.05Q-68.2 193.25 -68.2 184.6Q-68.25 175.65 -74.55 169.35L-75.2 168.75Q-76.6 167.45 -78.1 166.5L-78.05 166.5Q-78.75 165.85 -79.6 165.65L-79.65 165.65L-79.95 165.6L-79.9 165.6L-80.5 165.25L-80.55 165.2L-80.7 165.05L-80.7 165.1L-80.9 164.65L-80.95 164.2L-80.8 163.65L-80.85 163.7L-80.55 163.3L-80.5 163.25L-79.65 162.75L-79.7 162.75L-78.55 161.85L-77.8 161.2L-77.85 161.2L-77.3 160.7L-76.5 159.9L-76.45 159.9L-76 159.4L-75.9 159.3L-75.85 159.25Q-71.1 153.35 -71.1 145.5Q-71.1 141.25 -72.5 137.6L-72.85 136.7L-73.4 135.75L-74 134.7L-74.05 134.7L-74.25 134.05L-74.3 133.4Q-74.3 132.1 -73.35 131.15Q-72.45 130.25 -71.15 130.25L-70.3 130.35M-45.2 129.1Q-44.35 130 -44.3 131.25L-44.3 131.4L-44.3 201.9L-44.3 202.1Q-44.35 203.3 -45.2 204.2Q-46.1 205.1 -47.35 205.15L-47.5 205.15Q-48.8 205.1 -49.65 204.2L-49.7 204.2Q-50.6 203.3 -50.6 202.1L-50.6 131.25Q-50.6 130 -49.65 129.1L-49 128.55L-47.55 128.2L-47.35 128.2Q-46.55 128.2 -45.9 128.55L-45.2 129.1M-29.4 166.65Q-28.8 166 -27.95 165.8L-27.65 165.8L-26.4 165.9L-25.95 165.95Q-19.75 166.7 -15.1 171.35Q-9.55 176.95 -9.5 184.85Q-9.55 192.75 -15.1 198.3Q-18.85 202.05 -23.65 203.3L-27.7 203.9L-27.85 203.9L-29.35 203.4L-29.4 203.4L-29.5 203.35L-29.45 203.35L-30 202.9Q-30.7 202.2 -30.9 201.3L-30.95 200.65Q-30.95 199.35 -30 198.45Q-29.7 198.1 -28.95 197.9L-29 197.9L-28.35 197.75L-25.5 197.7L-25.45 197.65L-24.85 197.5L-24.25 197.3Q-21.45 196.35 -19.2 194.1Q-15.35 190.25 -15.35 184.8Q-15.35 179.3 -19.2 175.45Q-22.15 172.55 -25.95 171.85L-28.55 171.6L-28.8 171.6L-29.45 171.05Q-30.4 170.15 -30.4 168.85L-30.1 167.55L-29.9 167.15L-29.65 166.85L-29.65 166.8L-29.45 166.7L-29.4 166.65" fill="#fff"/>
		<!-- clock face -->
		<path d="M11.4 -179.3L3.55 -179.3Q3.3 -179.3 3.15 -179.45Q3 -179.6 3 -179.8L3 -207.8L3.55 -208.3L11.4 -208.3L12 -207.8L12 -179.8L11.4 -179.3M116.25 -143.2L119.7 -137.25L119.55 -136.55L95.3 -122.55L94.9 -122.5L94.6 -122.75L91.15 -128.7L91.35 -129.4L115.6 -143.4L116.25 -143.2M65.1 -191.8L71.05 -188.35L71.25 -187.65L57.25 -163.4L56.55 -163.25L50.6 -166.7L50.35 -167L50.4 -167.35L64.4 -191.6L65.1 -191.8M12 -72Q12 -67.05 8.5 -63.5Q4.95 -60 0 -60Q-5 -60 -8.5 -63.5Q-12 -67.05 -12 -72Q-12 -77 -8.5 -80.5Q-5 -84 0 -84Q4.95 -84 8.5 -80.5Q12 -77 12 -72M107.8 -75.05L107.3 -75.6L107.3 -83.45L107.8 -84.05L135.8 -84.05L136.15 -83.85L136.3 -83.45L136.3 -75.6L135.8 -75.05L107.8 -75.05M107.3 -60.6L107.3 -68.45Q107.3 -68.7 107.45 -68.85L107.8 -69L135.8 -69L136.3 -68.45L136.3 -60.6L135.8 -60L107.8 -60L107.3 -60.6M91.25 -15.45L94.7 -21.4L95.4 -21.6L119.65 -7.6L119.8 -6.9L116.35 -0.95L116.05 -0.7L115.7 -0.75L91.45 -14.75L91.25 -15.45M50.75 22.6L56.75 19.15L57.4 19.35L71.4 43.6L71.45 43.95L71.25 44.25L65.25 47.7L64.6 47.55L50.6 23.3L50.75 22.6M11.4 64.3L3.55 64.3L3.15 64.15L3 63.8L3 35.8L3.55 35.3L11.4 35.3L12 35.8L12 63.8L11.4 64.3M-3 -207.8L-3 -179.8L-3.2 -179.45Q-3.35 -179.3 -3.6 -179.3L-11.45 -179.3L-12 -179.8L-12 -207.8L-11.45 -208.3L-3.6 -208.3L-3 -207.8M-71.2 -188.25L-65.25 -191.7L-64.55 -191.5L-59.25 -182.45L-57.5 -179.4L-50.55 -167.25L-50.75 -166.6L-56.7 -163.15L-57.4 -163.3L-71.4 -187.55L-71.2 -188.25M-94.7 -122.55L-95.35 -122.4L-119.6 -136.4L-119.85 -136.7L-119.8 -137.05L-116.35 -143.05L-115.65 -143.2L-91.4 -129.2L-91.25 -128.55L-94.7 -122.55M-135.8 -74.9L-136.15 -75.1L-136.3 -75.5L-136.3 -83.4L-135.8 -83.95L-107.8 -83.95L-107.3 -83.4L-107.3 -75.5L-107.8 -74.9L-135.8 -74.9M-136.3 -60.55L-136.3 -68.45L-136.15 -68.85L-135.8 -69L-107.8 -69L-107.3 -68.45L-107.3 -60.55L-107.8 -60L-135.8 -60L-136.3 -60.55M-116.25 -0.75L-119.7 -6.75L-119.5 -7.4L-95.25 -21.4L-94.9 -21.45L-94.6 -21.25L-91.15 -15.25L-91.3 -14.6L-115.55 -0.6L-116.25 -0.75M-3.6 64.3L-11.45 64.3L-11.85 64.15L-12 63.8L-12 35.8L-11.45 35.3L-3.6 35.3L-3 35.8L-3 63.8L-3.6 64.3M-56.55 19.25L-50.55 22.7L-50.4 23.4L-64.4 47.65L-64.7 47.85L-65.05 47.8L-71.05 44.35L-71.2 43.7L-57.2 19.45L-56.55 19.25" fill="#abc10d"/>
		<g transform="translate(0 -72)" fill="#fff">
			<path id="hour" d="m3.6-20.6h-7.2v-75.2h7.2v75.2" transform="rotate(192.5)"/>
			<path id="min" d="m2.6-20.6h-5.2v-115h5.2v115" transform="rotate(150)"/>
			<path id="sec" d="m1.6-20.6h-3.2v-115h3.2v115"/>
		</g>
	</g>
</svg>